<?xml version="1.0" ?><svg xmlns="http://www.w3.org/2000/svg" xmlns:xlink="http://www.w3.org/1999/xlink" version="1.1" viewBox="0 0 64 64" style="enable-background:new 0 0 64 64;" xml:space="preserve"><g id="cappucino"/><g id="soft_drink"/><g id="energy_drink"/><g id="milkshake"/><g id="beer"/><g id="mineral_water"/><g id="coffee_cup"/><g id="wine"/><g id="whiskey"/><g id="kombucha"/><g id="ice_tea"/><g id="tea"/><g id="cocktail"/><g id="juice"><g><path d="M54.5,10.4l-12-7.2c-0.4-0.3-1-0.1-1.3,0.3L33,15h-6.1c-0.2-2.1-1.2-3.9-2.6-5.3c0,0,0,0,0,0s0,0,0,0C22.7,8,20.5,7,18,7    s-4.7,1-6.3,2.6c0,0,0,0,0,0s0,0,0,0C10,11.3,9,13.5,9,16s1,4.7,2.6,6.3c0,0,0,0,0,0s0,0,0,0c1.4,1.4,3.3,2.3,5.3,2.6V54    c0,0.8,0.3,1.5,0.8,2c-0.5,0.5-0.8,1.2-0.8,2c0,1.7,1.3,3,3,3h24c1.7,0,3-1.3,3-3c0-0.8-0.3-1.5-0.8-2c0.5-0.5,0.8-1.2,0.8-2V16    c0-0.6-0.4-1-1-1h-5.5l3.1-4.2l7.8,4.7c0.2,0.1,0.5,0.2,0.8,0.1s0.5-0.2,0.6-0.5l2.1-3.4C55.1,11.3,55,10.7,54.5,10.4z M12.4,20.2    c-0.7-0.9-1.2-2-1.3-3.2h4.5L12.4,20.2z M12.4,11.8l3.2,3.2h-4.5C11.3,13.8,11.7,12.7,12.4,11.8z M19,9.1c1.2,0.2,2.3,0.6,3.2,1.3    L19,13.6V9.1z M17,13.6l-3.2-3.2c0.9-0.7,2-1.2,3.2-1.3V13.6z M23.6,11.8c0.7,0.9,1.2,2,1.3,3.2h-4.5L23.6,11.8z M13.8,21.6    l3.2-3.2v4.5C15.8,22.7,14.7,22.3,13.8,21.6z M44,59H20c-0.6,0-1-0.4-1-1s0.4-1,1-1h24c0.6,0,1,0.4,1,1S44.6,59,44,59z M45,54    c0,0.6-0.4,1-1,1H20c-0.6,0-1-0.4-1-1V17h26V54z M51.6,13.3l-7.7-4.7c-0.4-0.3-1-0.2-1.3,0.3L38,15h-2.6l6.8-9.7l10.3,6.2    L51.6,13.3z"/><path d="M21.3,25.3C21.1,25.5,21,25.8,21,26v26c0,0.6,0.4,1,1,1h20c0.6,0,1-0.4,1-1V26c0-0.4-0.3-0.8-0.6-0.9    c-0.4-0.1-0.8,0-1.1,0.3c-0.1,0.2-3.4,3.8-8.7-0.1C25.9,20.2,21.3,25.3,21.3,25.3z M41,28v23H23V26.4c0.9-0.8,3.9-3,8.4,0.4    C35.6,30,39.1,29.1,41,28z"/><path d="M30,31h-4c-0.6,0-1,0.4-1,1v4c0,0.6,0.4,1,1,1h4c0.6,0,1-0.4,1-1v-4C31,31.4,30.6,31,30,31z M29,35h-2v-2h2V35z"/><path d="M34,43h4c0.6,0,1-0.4,1-1v-4c0-0.6-0.4-1-1-1h-4c-0.6,0-1,0.4-1,1v4C33,42.6,33.4,43,34,43z M35,39h2v2h-2V39z"/><path d="M30,43h-4c-0.6,0-1,0.4-1,1v4c0,0.6,0.4,1,1,1h4c0.6,0,1-0.4,1-1v-4C31,43.4,30.6,43,30,43z M29,47h-2v-2h2V47z"/></g></g><g id="lemonade"/><g id="mocktail"/><g id="bubble_tea"/><g id="coffee"/><g id="water"/><g id="milk"/></svg>